<svg width="25" height="24" viewBox="0 0 25 24" fill="none" xmlns="http://www.w3.org/2000/svg">
<g filter="url(#filter0_d_18704_34)">
<path fill-rule="evenodd" clip-rule="evenodd" d="M17.5113 15.5422L19.7655 13.3051C19.9575 13.113 20.0367 12.887 20.0028 12.6271C19.9576 12.4011 19.8164 12.2147 19.579 12.0677L16.3078 10.1355H16.2909C16.1779 10.0677 16.0255 10.0338 15.8333 10.0338C15.5621 10.0338 15.3249 10.1242 15.1214 10.305L14.1554 11.288C14.1327 11.3107 14.096 11.3304 14.0452 11.3474C13.9944 11.3643 13.9576 11.3728 13.935 11.3728L13.7232 11.3304C13.5819 11.3022 13.3785 11.2203 13.113 11.0847C12.8475 10.9491 12.5169 10.7372 12.1215 10.4492C11.726 10.161 11.274 9.75706 10.7655 9.23724C10.2458 8.72876 9.84463 8.27964 9.56214 7.88981C9.27965 7.49998 9.07062 7.16947 8.93502 6.89829C8.77683 6.5932 8.67514 6.32202 8.62994 6.08473C8.62994 6.05083 8.63841 6.00846 8.65536 5.95761C8.67231 5.90676 8.69208 5.87004 8.71468 5.84744L9.54519 5.01694C9.69208 4.87004 9.78813 4.68925 9.83333 4.47456C9.87852 4.25988 9.85028 4.06214 9.74858 3.88135L7.93502 0.440677C7.85593 0.316383 7.75988 0.211864 7.64689 0.127118C7.53389 0.0423728 7.40395 0 7.25706 0C7.05367 0 6.87288 0.0790958 6.71469 0.237288L4.46045 2.49152C4.34746 2.59321 4.25141 2.72598 4.17232 2.88982C4.09322 3.05366 4.04237 3.21468 4.01977 3.37287C4.01977 3.39547 4.01412 3.50847 4.00282 3.71185C3.99153 3.91524 4.01412 4.1949 4.07062 4.55084C4.12712 4.90677 4.23446 5.33049 4.39265 5.82202C4.55085 6.31354 4.78813 6.86156 5.10455 7.46608C5.42093 8.0706 5.83901 8.72879 6.35878 9.44068C6.87856 10.1525 7.53392 10.8983 8.32488 11.6779C9.31923 12.6836 10.2571 13.4746 11.1384 14.0508C12.0198 14.627 12.8079 15.0593 13.5029 15.3474C14.1978 15.6355 14.7853 15.8163 15.2655 15.8898C15.7457 15.9633 16.0932 16 16.308 16C16.3984 16 16.4718 15.9971 16.5282 15.9915C16.5848 15.9858 16.6187 15.9829 16.63 15.9829C16.7882 15.9604 16.9492 15.9095 17.113 15.8304C17.2768 15.7514 17.4096 15.6552 17.5113 15.5422ZM16.5146 14.9884C16.5557 14.9799 16.6097 14.9629 16.6781 14.9299C16.7125 14.9133 16.7355 14.8989 16.7492 14.8889C16.7627 14.8792 16.7678 14.8735 16.768 14.8733L16.7869 14.8523L18.8539 12.8009L16.0346 11.1355H16.0138L15.8446 11.0339C15.8411 11.0339 15.8374 11.0338 15.8333 11.0338C15.8213 11.0338 15.8143 11.0348 15.8113 11.0353L15.8085 11.0359L15.8073 11.0364L15.8044 11.0381C15.8035 11.0386 15.8022 11.0394 15.8006 11.0405L14.8625 11.9952C14.6795 12.1781 14.472 12.2591 14.3618 12.2959L14.3577 12.2973C14.3025 12.3157 14.1315 12.3728 13.935 12.3728H13.8359L13.5276 12.3111C13.5273 12.311 13.5278 12.3111 13.5276 12.3111C13.2438 12.2544 12.9374 12.1179 12.6582 11.9753C12.3259 11.8056 11.9473 11.5594 11.5327 11.2574C11.0786 10.9265 10.5861 10.4833 10.0584 9.94437C9.51999 9.41713 9.0786 8.92676 8.75239 8.47659C8.45613 8.06775 8.21362 7.69014 8.04394 7.35218C7.85993 6.99628 7.71637 6.63291 7.6476 6.27184L7.62994 6.17912V6.08473C7.62994 5.89958 7.67309 5.74214 7.70668 5.64138C7.74364 5.53049 7.82477 5.32315 8.00758 5.14034L8.83808 4.30983C8.83978 4.30813 8.84098 4.3068 8.84185 4.30571L7.1915 1.17468L5.14896 3.21722L5.12942 3.23481C5.12932 3.2349 5.12371 3.23993 5.1139 3.25349C5.10391 3.26729 5.08958 3.28995 5.07287 3.32457C5.04245 3.38758 5.02559 3.43851 5.01646 3.47836C5.01309 3.55381 5.00749 3.65572 5.00129 3.76732C4.99583 3.86558 5.00579 4.06355 5.05826 4.39407C5.10408 4.68278 5.19599 5.05399 5.34457 5.51565C5.48079 5.9389 5.69268 6.4333 5.99052 7.00235C6.27844 7.55247 6.66789 8.1682 7.1664 8.85097C7.64739 9.5097 8.26498 10.2147 9.02688 10.9658L9.03604 10.9748C9.99643 11.9461 10.8798 12.6869 11.6856 13.2138C12.534 13.7684 13.2658 14.1666 13.8859 14.4237C14.5422 14.6958 15.047 14.8447 15.4168 14.9013C15.8933 14.9742 16.1756 15 16.308 15C16.3814 15 16.4185 14.9975 16.4291 14.9964C16.4312 14.9962 16.4338 14.9959 16.4367 14.9956C16.4534 14.9939 16.4819 14.991 16.5146 14.9884Z" fill="white"/>
</g>
<defs>
<filter id="filter0_d_18704_34" x="0" y="0" width="24.0104" height="24" filterUnits="userSpaceOnUse" color-interpolation-filters="sRGB">
<feFlood flood-opacity="0" result="BackgroundImageFix"/>
<feColorMatrix in="SourceAlpha" type="matrix" values="0 0 0 0 0 0 0 0 0 0 0 0 0 0 0 0 0 0 127 0" result="hardAlpha"/>
<feOffset dy="4"/>
<feGaussianBlur stdDeviation="2"/>
<feComposite in2="hardAlpha" operator="out"/>
<feColorMatrix type="matrix" values="0 0 0 0 0 0 0 0 0 0 0 0 0 0 0 0 0 0 0.25 0"/>
<feBlend mode="normal" in2="BackgroundImageFix" result="effect1_dropShadow_18704_34"/>
<feBlend mode="normal" in="SourceGraphic" in2="effect1_dropShadow_18704_34" result="shape"/>
</filter>
</defs>
</svg>
