<svg width="16" height="11" viewBox="0 0 16 11" fill="none" xmlns="http://www.w3.org/2000/svg">
<path fill-rule="evenodd" clip-rule="evenodd" d="M2.19066 0.8L8.02203 5.74115L8.19094 5.5975L13.846 0.8H2.19066ZM15.9152 0C15.9373 0 15.9584 0.00959964 15.9736 0.0246095C15.9771 0.0281237 15.9804 0.0319344 15.9832 0.0359879L8.70847 6.20755L8.40369 6.46677C8.40039 6.46904 8.3971 6.4711 8.39386 6.47314C8.39135 6.47472 8.38888 6.47628 8.38644 6.4779C8.38631 6.47799 8.38658 6.47781 8.38644 6.4779L8.35987 6.49545C8.2634 6.56097 8.14416 6.59696 8.0235 6.59696H8.02008C7.88357 6.59696 7.75349 6.55517 7.65861 6.48128C7.65798 6.48078 7.65734 6.48029 7.65671 6.47979C7.65215 6.4762 7.64767 6.47253 7.64327 6.46879L0.0321569 0.0195933C0.0466667 0.00731059 0.0648889 0 0.0845229 0H15.9152ZM16 0.904915V10.0249L10.5534 5.5253L16 0.904915ZM11.7997 5.51718L15.2 2.63264V8.32629L11.7997 5.51718ZM10.0312 5.96767L8.82173 6.99396C8.80994 7.0039 8.79795 7.0136 8.78578 7.02306C8.77814 7.02899 8.77043 7.03483 8.76264 7.04057C8.76147 7.04143 8.7603 7.04229 8.75913 7.04315C8.75306 7.04758 8.74695 7.05196 8.7408 7.05628C8.73839 7.05797 8.73598 7.05965 8.73355 7.06133C8.53064 7.20149 8.28247 7.27782 8.0235 7.27805C8.02312 7.27805 8.02274 7.27805 8.02235 7.27805C8.0216 7.27805 8.02084 7.27805 8.02008 7.27805C7.72154 7.27754 7.43869 7.17723 7.22269 6.99541L5.97393 5.93663L0 10.897V10.9128C0 10.9566 0.0339006 10.9943 0.0759072 10.9994C0.0790614 10.9998 0.0822612 11 0.0854959 11C0.0854455 11 0.0855463 11 0.0854959 11H15.9155C15.9154 11 15.9155 11 15.9155 11C15.9182 11 15.9211 10.9998 15.9237 10.9996C15.9656 10.9951 16 10.957 16 10.9125V10.8979L10.0312 5.96767ZM10.0381 7.011L13.8989 10.2H2.09175L5.96856 6.98092L6.70533 7.6056L6.70751 7.60745C7.07688 7.91836 7.54603 8.07805 8.02235 8.07805C8.4992 8.07805 8.96849 7.91675 9.33753 7.60548L10.0381 7.011ZM0 10.0225L5.45229 5.49458L0 0.87449V10.0225ZM0.8 2.60097V8.31827L4.20754 5.48841L0.8 2.60097Z" fill="white"/>
</svg>
