<svg width="11" height="16" viewBox="0 0 11 16" fill="none" xmlns="http://www.w3.org/2000/svg">
<path fill-rule="evenodd" clip-rule="evenodd" d="M1.91612 8.95999L5.5 14.2233L9.08388 8.95999L9.09506 8.94482C9.75151 8.05481 10.0673 6.81608 9.98807 5.55382C9.90881 4.29125 9.44171 3.11775 8.67607 2.33917C6.92023 0.553654 4.08016 0.553564 2.32392 2.33917M5.5 16L1.10016 9.5384C-0.542253 7.31161 -0.324394 3.60603 1.61092 1.63802C3.75895 -0.546005 7.24136 -0.546005 9.38908 1.63802C11.3244 3.60603 11.5423 7.31161 9.89984 9.5384L5.5 16ZM1.91612 8.95999L1.90494 8.94482ZM1.90494 8.94482C1.24849 8.05481 0.932684 6.81608 1.01193 5.55382ZM1.01193 5.55382C1.09119 4.29128 1.55832 3.11775 2.32392 2.33917ZM5.55356 8.38453C3.98278 8.38453 2.73807 7.09448 2.73807 5.53836C2.73807 3.98224 3.98278 2.69219 5.55356 2.69219C7.12433 2.69219 8.36905 3.98224 8.36905 5.53836C8.36905 7.09448 7.12433 8.38453 5.55356 8.38453ZM3.73807 5.53836C3.73807 6.55806 4.5508 7.38453 5.55356 7.38453C6.55631 7.38453 7.36905 6.55806 7.36905 5.53836C7.36905 4.51866 6.55631 3.69219 5.55356 3.69219C4.5508 3.69219 3.73807 4.51866 3.73807 5.53836Z" fill="white"/>
</svg>
